<svg width="40" height="40" viewBox="0 0 40 40" fill="none" xmlns="http://www.w3.org/2000/svg">
  <!-- Outer circle -->
  <circle cx="20" cy="20" r="19" fill="url(#grad1)" stroke="#22c55e" stroke-width="1.2"/>
  <!-- Wheat stalk center -->
  <line x1="20" y1="31" x2="20" y2="10" stroke="white" stroke-width="1.8" stroke-linecap="round"/>
  <!-- Grain head top -->
  <ellipse cx="20" cy="11.5" rx="2.5" ry="3.5" fill="#86efac"/>
  <!-- Left grains -->
  <ellipse cx="15.5" cy="17" rx="3.5" ry="1.8" fill="#86efac" transform="rotate(-35 15.5 17)"/>
  <ellipse cx="14.5" cy="22" rx="3.5" ry="1.8" fill="#86efac" transform="rotate(-30 14.5 22)"/>
  <!-- Right grains -->
  <ellipse cx="24.5" cy="17" rx="3.5" ry="1.8" fill="#86efac" transform="rotate(35 24.5 17)"/>
  <ellipse cx="25.5" cy="22" rx="3.5" ry="1.8" fill="#86efac" transform="rotate(30 25.5 22)"/>
  <!-- Root leaf -->
  <path d="M20 31 Q16 34 13 33 Q15 30 20 31Z" fill="#4ade80" opacity="0.8"/>
  <path d="M20 31 Q24 34 27 33 Q25 30 20 31Z" fill="#4ade80" opacity="0.8"/>
  <defs>
    <linearGradient id="grad1" x1="0" y1="0" x2="40" y2="40" gradientUnits="userSpaceOnUse">
      <stop offset="0%" stop-color="#052e16"/>
      <stop offset="100%" stop-color="#064e3b"/>
    </linearGradient>
  </defs>
</svg>
